<svg xmlns="http://www.w3.org/2000/svg" xmlns:xlink="http://www.w3.org/1999/xlink" width="217.458" height="231.883" viewBox="0 0 217.458 231.883">
  <defs>
    <linearGradient id="linear-gradient" y1="0.5" x2="1" y2="0.5" gradientUnits="objectBoundingBox">
      <stop offset="0" stop-color="#238978"/>
      <stop offset="0.171" stop-color="#1c7167"/>
      <stop offset="0.539" stop-color="#0f4547"/>
      <stop offset="0.824" stop-color="#072934"/>
      <stop offset="0.989" stop-color="#041f2d"/>
    </linearGradient>
    <linearGradient id="linear-gradient-2" x1="-6.679" y1="0.243" x2="7.552" y2="0.761" gradientUnits="objectBoundingBox">
      <stop offset="0" stop-color="#54b58c"/>
      <stop offset="0.369" stop-color="#37a9a4"/>
      <stop offset="0.989" stop-color="#0093d5"/>
    </linearGradient>
    <linearGradient id="linear-gradient-3" x1="-5.343" y1="0.244" x2="6.112" y2="0.767" xlink:href="#linear-gradient-2"/>
    <linearGradient id="linear-gradient-4" x1="-5.726" y1="0.245" x2="6.434" y2="0.764" xlink:href="#linear-gradient-2"/>
    <linearGradient id="linear-gradient-5" x1="-2.379" y1="0.25" x2="3.472" y2="0.758" xlink:href="#linear-gradient-2"/>
    <linearGradient id="linear-gradient-6" x1="-2.445" y1="0.25" x2="3.575" y2="0.761" xlink:href="#linear-gradient-2"/>
    <linearGradient id="linear-gradient-7" x1="-2.543" y1="0.25" x2="3.714" y2="0.764" xlink:href="#linear-gradient-2"/>
  </defs>
  <g id="Group_3121" data-name="Group 3121" transform="translate(-263.224 -114.975)">
    <g id="Group_3116" data-name="Group 3116">
      <path id="Path_7462" data-name="Path 7462" d="M306.061,338.393h-1.246a5.251,5.251,0,0,1-3.885-1.463.386.386,0,0,1-.109-.127,1.746,1.746,0,0,1-.27.326,4.707,4.707,0,0,1-3.451,1.264h-1.843a5.559,5.559,0,0,1-4.066-1.355.274.274,0,0,0-.053-.073c-.061.085-.1.139-.126.164a4.621,4.621,0,0,1-3.415,1.264h-4.968a7.826,7.826,0,0,1-2.746,4.643,8,8,0,0,1-13.135-6.143v-8.725a.431.431,0,0,1,.488-.488h1.735a.431.431,0,0,1,.487.488v8.725a5.294,5.294,0,0,0,10.587,0V321.23a.448.448,0,0,1,.506-.506h1.717a.447.447,0,0,1,.505.506v14.453H287.6a2.009,2.009,0,0,0,1.5-.487,2.059,2.059,0,0,0,.488-1.536V322.206a.431.431,0,0,1,.488-.489h1.752c.314,0,.47.163.47.489v11.96a1.317,1.317,0,0,0,.308.939,3.176,3.176,0,0,0,2.2.578h2.331a2.111,2.111,0,0,0,1.517-.487,2.149,2.149,0,0,0,.47-1.536V321.212a.44.44,0,0,1,.506-.488h1.7a.44.44,0,0,1,.506.488V333.66a1.813,1.813,0,0,0,.524,1.337,2.664,2.664,0,0,0,1.969.686h1.735Z" fill="#0093d5" stroke="#0092d5" stroke-miterlimit="10" stroke-width="1.5"/>
      <path id="Path_7463" data-name="Path 7463" d="M305.157,338.393v-2.71h5.764a2.012,2.012,0,0,0,1.463-.487,2.074,2.074,0,0,0,.488-1.518V321.212c0-.325.168-.488.506-.488h1.716a.44.44,0,0,1,.506.488v12.466a4.629,4.629,0,0,1-1.3,3.451,4.694,4.694,0,0,1-3.415,1.264Zm4.3,3.524a.447.447,0,0,1,.506.505v2.168a.44.44,0,0,1-.506.488h-1.825a.431.431,0,0,1-.487-.488v-2.168c0-.337.163-.505.487-.505Zm4.933,0a.447.447,0,0,1,.506.505v2.168a.44.44,0,0,1-.506.488h-1.825a.431.431,0,0,1-.488-.488v-2.168c0-.337.162-.505.488-.505Z" fill="#0093d5" stroke="#0092d5" stroke-miterlimit="10" stroke-width="1.5"/>
      <path id="Path_7464" data-name="Path 7464" d="M331.715,338.393h-5.654V339.8a5.816,5.816,0,0,1-6.306,6.306h-1.86a.432.432,0,0,1-.489-.488v-1.735a.432.432,0,0,1,.489-.488h1.86a3.664,3.664,0,0,0,2.71-.867,3.726,3.726,0,0,0,.867-2.728V321.249a.447.447,0,0,1,.506-.506h1.734a.44.44,0,0,1,.489.506v14.434h5.654Z" fill="#0093d5" stroke="#0092d5" stroke-miterlimit="10" stroke-width="1.5"/>
      <path id="Path_7465" data-name="Path 7465" d="M344.2,338.393h-1.265a5.479,5.479,0,0,1-4.065-1.373l-.054-.055-.145.145a4.539,4.539,0,0,1-3.414,1.283h-5.348v-2.71h5.4a1.717,1.717,0,0,0,1.951-2.005V321.212a.431.431,0,0,1,.487-.488h1.716c.338,0,.506.163.506.488v12.954a1.263,1.263,0,0,0,.326.958,3.187,3.187,0,0,0,2.168.559H344.2Zm-4.679,3.27a.447.447,0,0,1,.505.506v2.168c0,.326-.168.488-.505.488h-1.807c-.337,0-.506-.162-.506-.488v-2.168a.448.448,0,0,1,.506-.506Z" fill="#0093d5" stroke="#0092d5" stroke-miterlimit="10" stroke-width="1.5"/>
      <path id="Path_7466" data-name="Path 7466" d="M375.995,338.393h-1.247a5.315,5.315,0,0,1-3.9-1.463.186.186,0,0,1-.035-.054.269.269,0,0,1-.055-.073,1.734,1.734,0,0,1-.272.326,4.614,4.614,0,0,1-3.414,1.264h-1.879a5.554,5.554,0,0,1-4.064-1.355.05.05,0,0,1-.019-.035c-.011-.013-.024-.025-.036-.038a.805.805,0,0,0-.144.164h.017a4.664,4.664,0,0,1-3.45,1.264h-1.843a5.515,5.515,0,0,1-4.064-1.355l-.037-.035a.056.056,0,0,1-.018-.038,1.061,1.061,0,0,1-.127.164,4.637,4.637,0,0,1-3.431,1.264H343.3v-2.71h4.752a1.893,1.893,0,0,0,1.445-.487,2.106,2.106,0,0,0,.488-1.536V321.212a.431.431,0,0,1,.487-.488H352.2a.432.432,0,0,1,.489.488v12.954a1.321,1.321,0,0,0,.306.939,3.187,3.187,0,0,0,2.2.578h2.385a1.928,1.928,0,0,0,1.445-.487,2.063,2.063,0,0,0,.488-1.536V322.188a.431.431,0,0,1,.487-.488h1.734a.432.432,0,0,1,.489.488v11.978a1.28,1.28,0,0,0,.306.939,3.144,3.144,0,0,0,2.2.578h2.33a1.744,1.744,0,0,0,1.988-2.023V321.212a.431.431,0,0,1,.487-.488h1.734a.432.432,0,0,1,.489.488V333.66a1.812,1.812,0,0,0,.523,1.337,2.665,2.665,0,0,0,1.97.686h1.734Z" fill="#0093d5" stroke="#0092d5" stroke-miterlimit="10" stroke-width="1.5"/>
      <path id="Path_7467" data-name="Path 7467" d="M389.762,321.808a7.918,7.918,0,0,1,5.889,2.366,8.234,8.234,0,0,1,2.313,6v3.506a4.391,4.391,0,0,1-4.716,4.715H375.092v-2.71h18.139a1.766,1.766,0,0,0,2.023-2.005v-3.506a5.593,5.593,0,0,0-1.518-4.082,5.306,5.306,0,0,0-3.974-1.554h-8.328a1.357,1.357,0,0,1-1.356-1.355q0-4.752,2.421-7.425a8.66,8.66,0,0,1,6.739-2.673h3.071a.43.43,0,0,1,.488.487V315.3a.431.431,0,0,1-.488.488h-3.071q-5.781,0-6.378,6.016Z" fill="#0093d5" stroke="#0092d5" stroke-miterlimit="10" stroke-width="1.5"/>
      <path id="Path_7468" data-name="Path 7468" d="M409.293,307.536a.3.3,0,0,1,.343.344v.794a.3.3,0,0,1-.343.343h-6.287a.3.3,0,0,1-.344-.343v-.794a.3.3,0,0,1,.344-.344h1.029v-2.151a2.724,2.724,0,0,1,.813-1.968,2.664,2.664,0,0,1,1.951-.813,2.582,2.582,0,0,1,2.566,1.7l.162.362a.22.22,0,0,1,.037.127.4.4,0,0,1-.037.144.406.406,0,0,1-.2.181l-.722.307a.32.32,0,0,1-.145.036.334.334,0,0,1-.107-.018.324.324,0,0,1-.2-.2l-.144-.361a1.3,1.3,0,0,0-2.493.505v2.151Zm-2.277,4.136c.326,0,.488.169.488.506v25.709c0,.337-.162.506-.488.506h-1.735c-.324,0-.487-.169-.487-.506V312.178c0-.337.163-.506.487-.506Z" fill="#0093d5" stroke="#0092d5" stroke-miterlimit="10" stroke-width="1.5"/>
      <path id="Path_7469" data-name="Path 7469" d="M434.584,338.393h-5.672V339.8a5.815,5.815,0,0,1-6.3,6.306h-1.861a.431.431,0,0,1-.488-.488v-1.735a.431.431,0,0,1,.488-.488h1.861a3.66,3.66,0,0,0,2.709-.867,3.722,3.722,0,0,0,.868-2.728V321.249c0-.338.162-.506.488-.506h1.734a.447.447,0,0,1,.506.506v14.434h5.672Zm-7.912-22.058a.432.432,0,0,1-.488-.489v-2.185a.432.432,0,0,1,.488-.489H428.5a.432.432,0,0,1,.488.489v2.185a.432.432,0,0,1-.488.489Z" fill="#0093d5" stroke="#0092d5" stroke-miterlimit="10" stroke-width="1.5"/>
      <path id="Path_7470" data-name="Path 7470" d="M458.921,338.393h-1.266a5.54,5.54,0,0,1-4.082-1.373,4.773,4.773,0,0,1-.4-.488,6.081,6.081,0,0,1-4.787,1.861h-15.61v-2.71h15.61a3.889,3.889,0,0,0,2.728-.848,3.769,3.769,0,0,0,.867-2.729v-3.559a5.579,5.579,0,0,0-1.716-4.119,5.641,5.641,0,0,0-4.137-1.716,6.824,6.824,0,0,0-5.926,2.763l-.506.7a.462.462,0,0,1-.38.235.513.513,0,0,1-.307-.126L437.6,325.3a.52.52,0,0,1-.2-.327v-.089a.555.555,0,0,1,.09-.29l.506-.7A9.376,9.376,0,0,1,446.13,320a8.541,8.541,0,0,1,8.562,8.545v5.619a1.263,1.263,0,0,0,.327.958,3.187,3.187,0,0,0,2.168.559h1.734Zm-13.912,3.27c.326,0,.488.169.488.506v2.168a.431.431,0,0,1-.488.488h-1.824c-.337,0-.506-.162-.506-.488v-2.168a.448.448,0,0,1,.506-.506Z" fill="#0093d5" stroke="#0092d5" stroke-miterlimit="10" stroke-width="1.5"/>
      <path id="Path_7471" data-name="Path 7471" d="M471.387,319.983a8.575,8.575,0,0,1,8.545,8.564v3.542a5.81,5.81,0,0,1-6.287,6.3H458.018v-2.71h15.627a3.665,3.665,0,0,0,2.711-.867,3.725,3.725,0,0,0,.867-2.727v-3.542a5.861,5.861,0,0,0-5.836-5.835,6.913,6.913,0,0,0-5.944,2.782l-.505.686a.5.5,0,0,1-.38.235.514.514,0,0,1-.308-.126l-1.391-1.012a.456.456,0,0,1-.252-.38.526.526,0,0,1,.125-.324l.525-.688A9.442,9.442,0,0,1,471.387,319.983Z" fill="#0093d5" stroke="#0092d5" stroke-miterlimit="10" stroke-width="1.5"/>
    </g>
    <g id="Group_3120" data-name="Group 3120">
      <path id="Path_7472" data-name="Path 7472" d="M331.529,154.118l-10.971,5.542-4.433,2.231-10.985,5.556-4.434,2.231-10.757,5.428v25.579l10.757-5.428,4.434-2.231,10.985-5.556,4.433-2.231,10.971-5.542.213-.114V154Z" fill="#54b58c"/>
      <path id="Path_7473" data-name="Path 7473" d="M331.529,185.381l-10.971,5.542-4.433,2.231L305.14,198.71l-4.434,2.231-10.757,5.428v17.052l10.757-5.428,4.434-2.231,10.985-5.556,4.433-2.231,10.971-5.542.213-.114V185.267Z" fill="#3eb4a4"/>
      <path id="Path_7474" data-name="Path 7474" d="M331.529,209.539l-10.971,5.542-4.433,2.231-10.985,5.556-4.434,2.231-10.757,5.428v12.789l10.757-5.428,4.434-2.231,10.985-5.556,4.433-2.231,10.971-5.542.213-.114V209.425Z" fill="#28b3b7"/>
      <path id="Path_7475" data-name="Path 7475" d="M331.742,230.74v9.947l-.213.114-10.97,5.542-4.434,2.231-10.985,5.556-4.434,2.231-10.757,5.428v-9.947l10.757-5.428,4.434-2.231,10.985-5.556,4.434-2.231,10.97-5.542Z" fill="#0da7ca"/>
      <path id="Path_7476" data-name="Path 7476" d="M331.739,249.22v7.105l-.213.114-10.97,5.542-4.433,2.231-10.985,5.556L300.7,272l-10.757,5.428v-7.105l10.757-5.428,4.434-2.231,10.985-5.556,4.433-2.231,10.97-5.542Z" fill="#0093d5"/>
      <path id="Path_7477" data-name="Path 7477" d="M347.214,174.118v4.263l-.241-.114L336,172.712l-.213-.114v-4.263l.213.114L346.973,174Z" fill="#54b58c"/>
      <path id="Path_7478" data-name="Path 7478" d="M347.214,198.276v4.263l-.241-.114L336,196.869l-.213-.114v-4.263l.213.114,10.97,5.556Z" fill="#3eb4a4"/>
      <path id="Path_7479" data-name="Path 7479" d="M347.214,221.012v4.263l-.241-.114L336,219.606l-.213-.114v-4.263l.213.114,10.97,5.556Z" fill="#28b3b7"/>
      <path id="Path_7480" data-name="Path 7480" d="M347.214,240.907v4.263l-.241-.114L336,239.5l-.213-.114v-4.263l.213.114,10.97,5.556Z" fill="#0da7ca"/>
      <path id="Path_7481" data-name="Path 7481" d="M347.214,257.974c-1.62.568-3.268,1.165-4.917,1.776l-6.295-3.2-.213-.114v-4.263l.213.113,10.971,5.557Z" fill="#0093d5"/>
      <path id="Path_7482" data-name="Path 7482" d="M433.148,227.795v.227l-.213-.114Z" fill="#041f2d"/>
      <path id="Path_7483" data-name="Path 7483" d="M263.224,307.849c91.243-50.68,182.617-66.347,193.853-25.01C461.045,237.932,365.494,236.19,263.224,307.849Z" fill="url(#linear-gradient)"/>
      <g id="Group_3119" data-name="Group 3119">
        <g id="Group_3117" data-name="Group 3117">
          <path id="Path_7484" data-name="Path 7484" d="M433.67,136.148V248.4c-1.336-.4-2.729-.739-4.164-1.052v-113.3Z" fill="url(#linear-gradient-2)"/>
          <path id="Path_7485" data-name="Path 7485" d="M418.266,128.375V245.781c-1.777-.128-3.61-.213-5.485-.242V125.6Z" fill="url(#linear-gradient-3)"/>
          <path id="Path_7486" data-name="Path 7486" d="M402.848,120.588V245.753c-1.791.1-3.624.255-5.486.426V117.817Z" fill="url(#linear-gradient-4)"/>
        </g>
        <g id="Group_3118" data-name="Group 3118">
          <path id="Path_7487" data-name="Path 7487" d="M361.055,130.535V253.483q-5.393,1.578-10.97,3.5v-120.9Z" fill="url(#linear-gradient-5)"/>
          <path id="Path_7488" data-name="Path 7488" d="M376.473,122.748v126.8q-5.371,1.172-10.984,2.7V128.3Z" fill="url(#linear-gradient-6)"/>
          <path id="Path_7489" data-name="Path 7489" d="M391.877,114.975V246.818q-5.328.7-10.97,1.805V120.517Z" fill="url(#linear-gradient-7)"/>
        </g>
      </g>
      <path id="Path_7490" data-name="Path 7490" d="M433.148,227.795v.227l-.213-.114Z" fill="#04202d" opacity="0.5"/>
      <path id="Path_7491" data-name="Path 7491" d="M263.224,307.849c91.243-50.68,182.617-66.347,193.853-25.01C461.045,237.932,365.494,236.19,263.224,307.849Z" fill="#0093d5"/>
    </g>
  </g>
</svg>
