<svg xmlns="http://www.w3.org/2000/svg" width="60.788" height="61.251" viewBox="0 0 60.788 61.251">
  <path id="Union_10" data-name="Union 10" d="M-2817,8178c31.024-21.861,60.05-21.763,60-8.575,0,.259-.013.524-.037.794-3.475-12.858-31.74-7.986-59.963,7.781Zm8.265-11.674,3.329-1.689,1.371-.694,3.4-1.728,1.371-.694,3.395-1.724.066-.035v2.21l-.066.035-3.395,1.724-1.371.694-3.4,1.728-1.371.694-3.329,1.689Zm0-5.749,3.327-1.689,1.371-.694,3.4-1.728,1.371-.694,3.393-1.724.066-.035v3.093l-.066.037-3.393,1.722-1.371.7-3.4,1.729-1.371.693-3.327,1.689Zm14.246,1.465-.068-.035v-1.326l.068.035,3.393,1.728.074.041c-.5.177-1.01.361-1.521.552Zm4.355-37.479,3.393-1.724v38.249q-1.668.489-3.393,1.085Zm4.764-2.417,3.4-1.729v39.445q-1.662.366-3.4.839Zm4.77-2.422,3.393-1.724v41.013c-1.1.148-2.227.333-3.393.563Zm15.034,39.453v-35.246l1.287.655v34.92C-2764.69,8159.38-2765.121,8159.276-2765.564,8159.177Zm-9.944-40.293,1.7.862v38.936c-.554.031-1.121.08-1.7.131Zm4.77,39.733v-37.311l1.7.862v36.522C-2769.591,8158.652-2770.16,8158.625-2770.738,8158.617Zm-20.356-.152-3.395-1.728-.066-.035v-1.326l.066.035,3.395,1.728.074.037v1.326Zm-17.638-1.424v-3.1l3.327-1.687,1.371-.7,3.4-1.728,1.371-.694,3.393-1.724.066-.035v3.978l-.066.035-3.393,1.724-1.371.7-3.4,1.728-1.371.694-3.327,1.689Zm17.638-4.764-3.395-1.729-.066-.035v-1.326l.066.035,3.395,1.728.074.035v1.326Zm-17.638-1.424v-4.421l3.327-1.689,1.371-.693,3.4-1.729,1.371-.7,3.393-1.724.066-.035v5.306l-.066.035-3.393,1.724-1.371.694-3.4,1.728-1.371.7-3.327,1.687Zm17.638-5.648-3.395-1.728-.066-.037v-1.326l.066.035,3.395,1.73.074.035v1.326Zm-17.638-2.752v-5.747l3.327-1.689,1.371-.694,3.4-1.728,1.371-.694,3.393-1.724.066-.035v7.957l-.066.035-3.393,1.724-1.371.694-3.4,1.728-1.371.694-3.327,1.689Zm17.638-4.764-3.395-1.728-.066-.035V8134.6l.066.035,3.395,1.728.074.035v1.328Z" transform="translate(2817.288 -8117.185)" fill="#fff" stroke="rgba(0,0,0,0)" stroke-miterlimit="10" stroke-width="1"/>
</svg>
